<?xml version="1.0" encoding="UTF-8"?>
<svg width="42px" height="42px" viewBox="0 0 42 42" version="1.1" xmlns="http://www.w3.org/2000/svg" xmlns:xlink="http://www.w3.org/1999/xlink">
  <g id="details" stroke="#000000" stroke-width="2">
    <circle id="Oval" cx="21" cy="21" r="20"></circle>
    <path d="M29.3333333,22.6666667 C28.4128588,22.6666667 27.6666667,21.9204746 27.6666667,21 C27.6666667,20.0795254 28.4128588,19.3333333 29.3333333,19.3333333 C30.2538079,19.3333333 31,20.0795254 31,21 C31,21.9204746 30.2538079,22.6666667 29.3333333,22.6666667 Z M21,22.6666667 C20.0795254,22.6666667 19.3333333,21.9204746 19.3333333,21 C19.3333333,20.0795254 20.0795254,19.3333333 21,19.3333333 C21.9204746,19.3333333 22.6666667,20.0795254 22.6666667,21 C22.6666667,21.9204746 21.9204746,22.6666667 21,22.6666667 Z M12.6666667,22.6666667 C11.7461921,22.6666667 11,21.9204746 11,21 C11,20.0795254 11.7461921,19.3333333 12.6666667,19.3333333 C13.5871412,19.3333333 14.3333333,20.0795254 14.3333333,21 C14.3333333,21.9204746 13.5871412,22.6666667 12.6666667,22.6666667 Z" id="dots" fill="#000000"></path>
  </g>
</svg>
